# xmcd
#
# Track frame offsets:
#   150
#   19662
#   36251
#   55834
#   72329
#   83753
#   105559
#   124638
#   146471
#   161613
#   177808
#   191288
#   206503
#   223591
#   247282
#   269522
#   290948
#   309639
#
# Disc length: 4320 seconds
#
# Revision: 0
# Processed by: cddbd v1.5.1PL0 Copyright (c) Steve Scherf et al.
# Submitted via: Click'N Design 3D 4.8
#
DISCID=0e10de12
DTITLE=na - Alabama
DYEAR=2000
DGENRE=Country
TTITLE0=whiskey lullaby
TTITLE1=If tomorrow never comes
TTITLE2=Like the rain
TTITLE3=man to man
TTITLE4=Sold at the grundy country auction
TTITLE5=When the sun goes down
TTITLE6=I'm already there
TTITLE7=Hell Yeah
TTITLE8=Three wooden crosses
TTITLE9=Prayin' for day light
TTITLE10=Indian Outlaw
TTITLE11=Chrome
TTITLE12=Paint me a birmingham
TTITLE13=Go rest high on that mountain
TTITLE14=Live like you were dying
TTITLE15=Raining on Sunday
TTITLE16=Don't take the girl
TTITLE17=Song of the South
EXTD=
EXTT0=
EXTT1=
EXTT2=
EXTT3=
EXTT4=
EXTT5=
EXTT6=
EXTT7=
EXTT8=
EXTT9=
EXTT10=
EXTT11=
EXTT12=
EXTT13=
EXTT14=
EXTT15=
EXTT16=
EXTT17=
PLAYORDER=
